<?xml version="1.0" encoding="UTF-8"?>
<svg width="279px" height="34px" viewBox="0 0 279 34" version="1.1" xmlns="http://www.w3.org/2000/svg" xmlns:xlink="http://www.w3.org/1999/xlink">
    <!-- Generator: Sketch 52.4 (67378) - http://www.bohemiancoding.com/sketch -->
    <title>logo-b-mobile</title>
    <desc>Created with Sketch.</desc>
    <g id="Page-1" stroke="none" stroke-width="1" fill="none" fill-rule="evenodd">
        <g id="Homepage" transform="translate(-38.000000, -42.000000)">
            <g id="logo-b-mobile" transform="translate(38.000000, 42.000000)">
                <g id="SvgjsG1504">
                    <g id="Group">
                        <path d="M48.0604167,5.26858333 L48.0604167,2.90275 L43.3145833,2.90275 L43.3145833,0.52275 L33.8229167,0.52275 L33.8229167,7.64858333 L17.197625,7.64858333 L17.197625,0.52275 L7.69958333,0.52275 L7.69958333,2.90275 L2.95375,2.90275 L2.95375,5.26858333 L0.566666667,5.26858333 L0.566666667,26.639 L2.95375,26.639 L2.95375,31.3848333 L5.31958333,31.3848333 L5.31958333,33.7719167 L14.81125,33.7719167 L14.81125,26.639 L12.4447083,26.639 L12.4447083,14.76025 L14.81125,14.76025 L14.81125,12.3944167 L19.5641667,12.3944167 L19.5641667,14.76025 L21.9434583,14.76025 L21.9434583,19.5131667 L29.07,19.5131667 L29.07,14.76025 L31.4358333,14.76025 L31.4358333,12.3944167 L36.18875,12.3944167 L36.18875,14.76025 L38.56875,14.76025 L38.56875,26.639 L36.18875,26.639 L36.18875,33.7719167 L45.6804167,33.7719167 L45.6804167,31.3848333 L48.0597083,31.3848333 L48.0597083,26.639 L50.4333333,26.639 L50.4333333,5.26858333 L48.0604167,5.26858333 Z M12.4447083,10.015125 L12.4447083,12.395125 L10.0654167,12.395125 L10.0654167,10.015125 L7.69958333,10.015125 L7.69958333,7.64929167 L10.0654167,7.64929167 L10.0654167,5.26929167 L12.4447083,5.26929167 L12.4447083,7.64929167 L14.81125,7.64929167 L14.81125,10.015125 L12.4447083,10.015125 Z M36.18875,10.015125 L36.18875,7.64929167 L38.56875,7.64929167 L38.56875,5.26929167 L40.9345833,5.26929167 L40.9345833,7.64929167 L43.313875,7.64929167 L43.313875,10.015125 L40.9345833,10.015125 L40.9345833,12.395125 L38.56875,12.395125 L38.56875,10.015125 L36.18875,10.015125 Z" id="Shape" fill="#FFFFFF" fill-rule="nonzero"></path>
                        <rect id="Rectangle" fill="#50E3C2" x="38.56875" y="7.64858333" width="2.36583333" height="2.36583333"></rect>
                        <rect id="Rectangle" fill="#50E3C2" x="31.4358333" y="14.76025" width="4.75291667" height="4.75291667"></rect>
                        <rect id="Rectangle" fill="#50E3C2" x="19.5641667" y="0.52275" width="11.8716667" height="4.74583333"></rect>
                        <rect id="Rectangle" fill="#50E3C2" x="14.81125" y="14.76025" width="4.75291667" height="4.75291667"></rect>
                    </g>
                </g>
                <g id="SvgjsG1505" transform="translate(64.000000, 6.000000)" fill="#FFFFFF" fill-rule="nonzero">
                    <path d="M7.50724638,0.4375 C12.057971,0.4375 15.0724638,3.16875 15.0724638,7.36625 C15.0724638,11.50625 12.057971,13.97875 7.50724638,13.97875 L4.95652174,13.97875 L4.95652174,20.5625 L0.289855072,20.5625 L0.289855072,0.4375 L7.50724638,0.4375 Z M7.2173913,10.04 C9.10144928,10.04 10.4057971,9.37875 10.4057971,7.36625 C10.4057971,5.3825 9.10144928,4.6925 7.2173913,4.6925 L4.95652174,4.6925 L4.95652174,10.04 L7.2173913,10.04 Z M28.4057971,5.6125 L32.9855072,5.6125 L32.9855072,20.5625 L28.4057971,20.5625 L28.4057971,19.0675 C28.2028986,19.585 26.8405797,20.85 24.5217391,20.85 C21.0724638,20.85 17.1014493,18.40625 17.1014493,13.05875 C17.1014493,7.9125 21.0724638,5.35375 24.5217391,5.35375 C26.8405797,5.35375 28.2028986,6.67625 28.4057971,6.9925 L28.4057971,5.6125 Z M25.1884058,16.85375 C27.0724638,16.85375 28.6086957,15.56 28.6086957,13.05875 C28.6086957,10.64375 27.0724638,9.35 25.1884058,9.35 C23.2173913,9.35 21.5362319,10.6725 21.5362319,13.05875 C21.5362319,15.53125 23.2173913,16.85375 25.1884058,16.85375 Z M43.2753623,16.7675 C44.0869565,16.7675 44.6666667,16.6525 45.3043478,16.48 L45.3043478,20.24625 C44.6666667,20.53375 43.6231884,20.735 42.0869565,20.735 C39.5652174,20.735 37.4492754,19.90125 37.4492754,15.30125 L37.4492754,9.35 L35.3333333,9.35 L35.3333333,5.6125 L37.4492754,5.6125 L37.4492754,2.105 L42.0289855,2.105 L42.0289855,5.6125 L45.2463768,5.6125 L45.2463768,9.35 L42.0289855,9.35 L42.0289855,15.30125 C42.0289855,15.9625 42.2028986,16.7675 43.2753623,16.7675 Z M52.3188406,0.23625 L52.3188406,4.06 L47.7391304,4.06 L47.7391304,0.23625 L52.3188406,0.23625 Z M52.3188406,5.6125 L52.3188406,20.5625 L47.7391304,20.5625 L47.7391304,5.6125 L52.3188406,5.6125 Z M62.7536232,5.35375 C66.173913,5.35375 70.9565217,7.9125 70,14.66875 L59.4782609,14.66875 C60,16.22125 61.3623188,17.02625 63.1884058,17.02625 C65.0434783,17.02625 65.6231884,16.62375 66.6666667,16.1925 L69.1884058,18.6075 C67.8550725,19.90125 66.057971,20.85 63.0144928,20.85 C59.2753623,20.85 54.8115942,18.29125 54.8115942,13.145 C54.8115942,7.9125 59.3333333,5.35375 62.7536232,5.35375 Z M62.7536232,9.235 C61.4492754,9.235 60.115942,9.9825 59.5362319,11.4775 L65.942029,11.4775 C65.4782609,9.9825 64.057971,9.235 62.7536232,9.235 Z M81.8550725,5.3825 C84.6666667,5.3825 87.5362319,7.25125 87.5362319,11.995 L87.5362319,20.5625 L82.9565217,20.5625 L82.9565217,12.31125 C82.9565217,10.04 82.173913,9.32125 80.7246377,9.32125 C78.6666667,9.32125 77.4782609,11.305 77.1884058,12.1675 L77.1884058,20.5625 L72.6086957,20.5625 L72.6086957,5.6125 L77.1884058,5.6125 L77.1884058,8.2 C77.4782609,7.48125 79.0144928,5.3825 81.8550725,5.3825 Z M97.6521739,16.7675 C98.4637681,16.7675 99.0434783,16.6525 99.6811594,16.48 L99.6811594,20.24625 C99.0434783,20.53375 98,20.735 96.4637681,20.735 C93.942029,20.735 91.826087,19.90125 91.826087,15.30125 L91.826087,9.35 L89.7101449,9.35 L89.7101449,5.6125 L91.826087,5.6125 L91.826087,2.105 L96.4057971,2.105 L96.4057971,5.6125 L99.6231884,5.6125 L99.6231884,9.35 L96.4057971,9.35 L96.4057971,15.30125 C96.4057971,15.9625 96.5797101,16.7675 97.6521739,16.7675 Z" id="Shape"></path>
                </g>
                <g id="SvgjsG1506" transform="translate(178.000000, 5.000000)" fill="#FFFFFF" fill-rule="nonzero">
                    <path d="M20.2278261,10.19 C21.2330435,17.33 16.7095652,21.8 11.0921739,21.8 C5.14956522,21.8 0.330434783,17.39 0.330434783,11 C0.330434783,4.61 5.23826087,0.2 11.0921739,0.2 C13.8713043,0.2 16.2956522,1.1 18.0991304,2.69 L15.2313043,5.96 C14.1965217,5.24 12.8069565,4.73 11.3878261,4.73 C7.75130435,4.73 5.2973913,7.37 5.2973913,11 C5.2973913,14.63 7.6626087,17.27 11.0921739,17.27 C13.6052174,17.27 15.2313043,16.49 15.8521739,14.27 L11.24,14.27 L11.24,10.19 L20.2278261,10.19 Z M34.2121739,5.9 L38.8834783,5.9 L38.8834783,21.5 L34.2121739,21.5 L34.2121739,19.94 C34.0052174,20.48 32.6156522,21.8 30.2504348,21.8 C26.7321739,21.8 22.6817391,19.25 22.6817391,13.67 C22.6817391,8.3 26.7321739,5.63 30.2504348,5.63 C32.6156522,5.63 34.0052174,7.01 34.2121739,7.34 L34.2121739,5.9 Z M30.9304348,17.63 C32.8521739,17.63 34.4191304,16.28 34.4191304,13.67 C34.4191304,11.15 32.8521739,9.8 30.9304348,9.8 C28.92,9.8 27.2052174,11.18 27.2052174,13.67 C27.2052174,16.25 28.92,17.63 30.9304348,17.63 Z M62.4469565,5.66 C65.7286957,5.66 68.626087,7.82 68.626087,13.1 L68.626087,21.5 L63.9547826,21.5 L63.9547826,13.25 C63.9547826,11.27 63.1269565,9.77 60.9686957,9.77 C59.1652174,9.77 57.9530435,11.39 57.5982609,12.83 L57.5982609,21.5 L52.9269565,21.5 L52.9269565,13.25 C52.9269565,11.27 51.7147826,9.77 49.9408696,9.77 C48.0191304,9.77 46.866087,11.09 46.5704348,12.83 L46.5704348,21.5 L41.8991304,21.5 L41.8991304,5.9 L46.5704348,5.9 L46.5704348,8.75 C46.6295652,8.03 48.1373913,5.66 51.1530435,5.66 C53.3704348,5.66 55.4991304,6.86 56.7704348,9.05 C57.1252174,8.21 58.8991304,5.66 62.4469565,5.66 Z M79.0921739,5.63 C82.5808696,5.63 87.4591304,8.3 86.4834783,15.35 L75.7513043,15.35 C76.2834783,16.97 77.6730435,17.81 79.5356522,17.81 C81.4278261,17.81 82.0191304,17.39 83.0834783,16.94 L85.6556522,19.46 C84.2956522,20.81 82.4626087,21.8 79.3582609,21.8 C75.5443478,21.8 70.9913043,19.13 70.9913043,13.76 C70.9913043,8.3 75.6034783,5.63 79.0921739,5.63 Z M79.0921739,9.68 C77.7617391,9.68 76.4017391,10.46 75.8104348,12.02 L82.3443478,12.02 C81.8713043,10.46 80.4226087,9.68 79.0921739,9.68 Z M99.0191304,5.66 C99.4330435,5.66 99.8469565,5.66 100.231304,5.75 L100.231304,10.28 C99.8765217,10.19 99.4626087,10.19 99.1669565,10.19 C96.3286957,10.19 94.0521739,12.26 93.8156522,15.14 L93.8156522,21.5 L89.1443478,21.5 L89.1443478,5.9 L93.8156522,5.9 L93.8156522,9.71 C94.5252174,7.37 96.2991304,5.66 99.0191304,5.66 Z" id="Shape"></path>
                </g>
            </g>
        </g>
    </g>
</svg>